<mxfile host="65bd71144e">
    <diagram id="UaNgxIbCgF_kjd8DDGjc" name="Página-1">
        <mxGraphModel dx="896" dy="447" grid="1" gridSize="10" guides="1" tooltips="1" connect="1" arrows="1" fold="1" page="1" pageScale="1" pageWidth="827" pageHeight="1169" math="0" shadow="0">
            <root>
                <mxCell id="0"/>
                <mxCell id="1" parent="0"/>
                <mxCell id="2" value="+---------------+        +----------------+&#10;|    Biblioteca |        |     Libro      |&#10;+---------------+   1  * +----------------+&#10;| - nombre      |&lt;&gt;------| - título       |&#10;+---------------+        | - ISBN         |&#10;| + prestarLibro|        | - autor        |&#10;| + devolverLibro|       +----------------+&#10;+---------------+        | + prestar()    |&#10;                         | + devolver()   |&#10;                         +----------------+&#10;                                 ^&#10;                                 |&#10;                         +----------------+&#10;                         |  LibroDigital  |&#10;                         +----------------+&#10;                         | - formato      |&#10;                         +----------------+&#10;                         | + descargar()  |&#10;                         +----------------+&#10;&#10;&#10;+---------------+        +----------------+&#10;|    Usuario    |        |   Préstamo     |&#10;+---------------+   1  * +----------------+&#10;| - nombre      |&lt;&gt;------| - fechaPréstamo|&#10;| - ID          |        | - fechaDevol.  |&#10;+---------------+        +----------------+&#10;| + tomarPrestado|       | + calcularMulta|&#10;| + devolver    |        +----------------+&#10;+---------------+                 |&#10;         ^                        | 1&#10;         |                        |&#10;         |                +----------------+&#10;         |                |     Multa      |&#10;         |                +----------------+&#10;         |                | - monto        |&#10;         |                | - razón        |&#10;+----------------+        +----------------+&#10;|   Bibliotecario|        | + pagar()      |&#10;+----------------+        +----------------+&#10;| - turno        |&#10;+----------------+&#10;| + gestionarLibro|&#10;+----------------+" style="text;whiteSpace=wrap;html=1;" vertex="1" parent="1">
                    <mxGeometry x="80" y="40" width="520" height="660" as="geometry"/>
                </mxCell>
            </root>
        </mxGraphModel>
    </diagram>
</mxfile>